# Alias OBJ Model File
# Exported from SketchUp, (c) 2000-2012 Trimble Navigation Limited
# File units = centimeters

mtllib amarelo_claro.mtl

g Mesh1 Group1 Model

usemtl Color_E03
v 194.969 4.4 -458.718
vt 2.1449 8.07087
vn 0.961814 0 -0.273704
v 194.969 0 -458.718
vt 2.1449 6.33858
v 194.969 -16.1 -458.718
vt 2.1449 0
v 193.186 -16.1 -465.718
vt 4.98871 0
vn 0.975504 0 -0.21998
v 193.186 0 -465.718
vt 4.98871 6.33858
v 193.186 4.4 -465.718
vt 4.98871 8.07087
f 1/1/1 2/2/1 3/3/1 4/4/2 5/5/2 6/6/2 

v 197.138 4.4 -451.829
vt -0.844514 8.07087
vn 0.953857 0 -0.300261
v 197.138 0 -451.829
vt -0.844514 6.33858
v 197.138 -16.1 -451.829
vt -0.844514 0
vt 1.99929 0
vt 1.99929 6.33858
vt 1.99929 8.07087
f 7/7/3 8/8/3 9/9/3 3/10/1 2/11/1 1/12/1 

v 219.338 4.4 -464.629
vt -12.5255 8.07087
vn -0.499497 0 -0.866315
v 219.338 0 -464.629
vt -12.5255 6.33858
v 219.338 -16.1 -464.629
vt -12.5255 0
vt -2.4366 0
vt -2.4366 6.33858
vt -2.4366 8.07087
f 10/13/4 11/14/4 12/15/4 9/16/4 8/17/4 7/18/4 

v 219.338 4.4 -524.129
vt -28.4646 8.07087
vn -1 0 -0
v 219.338 0 -524.129
vt -28.4646 6.33858
v 219.338 -16.1 -524.129
vt -28.4646 0
vt -5.03937 0
vt -5.03937 6.33858
vt -5.03937 8.07087
f 13/19/5 14/20/5 15/21/5 12/22/5 11/23/5 10/24/5 

v 197.138 4.4 -536.929
vt -14.2985 8.07087
vn -0.499497 0 0.866315
v 197.138 0 -536.929
vt -14.2985 6.33858
v 197.138 -16.1 -536.929
vt -14.2985 0
vt -4.20964 0
vt -4.20964 6.33858
vt -4.20964 8.07087
f 16/25/6 17/26/6 18/27/6 15/28/6 14/29/6 13/30/6 

v 194.969 4.4 -530.039
vt 29.9587 8.07087
vn 0.961814 0 0.273704
v 194.969 0 -530.039
vt 29.9587 6.33858
v 194.969 -16.1 -530.039
vt 29.9587 0
vt 32.8025 0
vn 0.953857 0 0.300261
vt 32.8025 6.33858
vt 32.8025 8.07087
f 19/31/7 20/32/7 21/33/7 18/34/8 17/35/8 16/36/8 

v 193.186 4.4 -523.039
vt 27.4777 8.07087
vn 0.975504 0 0.21998
v 193.186 0 -523.039
vt 27.4777 6.33858
v 193.186 -16.1 -523.039
vt 27.4777 0
vt 30.3215 0
vt 30.3215 6.33858
vt 30.3215 8.07087
f 22/37/9 23/38/9 24/39/9 21/40/7 20/41/7 19/42/7 

v 191.793 4.4 -515.951
vt 24.9078 8.07087
vn 0.986197 0 0.165579
v 191.793 0 -515.951
vt 24.9078 6.33858
v 191.793 -16.1 -515.951
vt 24.9078 0
vt 27.7516 0
vt 27.7516 6.33858
vt 27.7516 8.07087
f 25/43/10 26/44/10 27/45/10 24/46/9 23/47/9 22/48/9 

v 190.795 4.4 -508.797
vt 22.2571 8.07087
vn 0.993857 0 0.11067
v 190.795 0 -508.797
vt 22.2571 6.33858
v 190.795 -16.1 -508.797
vt 22.2571 0
vt 25.1009 0
vt 25.1009 6.33858
vt 25.1009 8.07087
f 28/49/11 29/50/11 30/51/11 27/52/10 26/53/10 25/54/10 

v 190.194 4.4 -501.599
vt 19.5335 8.07087
vn 0.998463 0 0.05542
v 190.194 0 -501.599
vt 19.5335 6.33858
v 190.194 -16.1 -501.599
vt 19.5335 0
vt 22.3773 0
vt 22.3773 6.33858
vt 22.3773 8.07087
f 31/55/12 32/56/12 33/57/12 30/58/11 29/59/11 28/60/11 

v 189.994 4.4 -494.379
vt 16.7455 8.07087
vn 1 0 -4.14758e-16
v 189.994 0 -494.379
vt 16.7455 6.33858
v 189.994 -16.1 -494.379
vt 16.7455 0
vt 19.5893 0
vt 19.5893 6.33858
vt 19.5893 8.07087
f 34/61/13 35/62/13 36/63/13 33/64/12 32/65/12 31/66/12 

v 190.194 4.4 -487.158
vt 13.9017 8.07087
vn 0.998463 0 -0.05542
v 190.194 0 -487.158
vt 13.9017 6.33858
v 190.194 -16.1 -487.158
vt 13.9017 0
f 37/67/14 38/68/14 39/69/14 36/63/13 35/62/13 34/61/13 

v 190.795 4.4 -479.96
vt 11.0108 8.07087
vn 0.993857 0 -0.11067
v 190.795 0 -479.96
vt 11.0108 6.33858
v 190.795 -16.1 -479.96
vt 11.0108 0
vt 13.8546 0
vt 13.8546 6.33858
vt 13.8546 8.07087
f 40/70/15 41/71/15 42/72/15 39/73/14 38/74/14 37/75/14 

v 191.793 4.4 -472.806
vt 8.08169 8.07087
vn 0.986197 0 -0.165579
v 191.793 0 -472.806
vt 8.08169 6.33858
v 191.793 -16.1 -472.806
vt 8.08169 0
vt 10.9255 0
vt 10.9255 6.33858
vt 10.9255 8.07087
f 43/76/16 44/77/16 45/78/16 42/79/15 41/80/15 40/81/15 

vt 5.12336 8.07087
vt 5.12336 6.33858
vt 5.12336 0
vt 7.96716 0
vt 7.96716 6.33858
vt 7.96716 8.07087
f 6/82/2 5/83/2 4/84/2 45/85/16 44/86/16 43/87/16 

vt -11.5528 5.03937
vn 0 -1 -0
vt -2.8126 0
vt -1.95872 2.71259
vt -1.25647 5.46833
vt -0.708037 8.25875
vt -0.315086 11.0753
vt -0.0788322 13.9093
vt 0 16.752
vt -0.0788322 19.5947
vt -0.315086 22.4287
vt -0.708037 25.2452
vt -1.25647 28.0356
vt -1.95872 30.7914
vt -2.8126 33.5039
vt -11.5528 28.4646
f 10/88/17 7/89/17 1/90/17 6/91/17 43/92/17 40/93/17 37/94/17 34/95/17 31/96/17 28/97/17 25/98/17 22/99/17 19/100/17 16/101/17 13/102/17 

