# Alias OBJ Model File
# Exported from SketchUp, (c) 2000-2012 Trimble Navigation Limited
# File units = centimeters

mtllib centro.mtl

g Mesh1 Group1 Model

usemtl Concrete_Scored_Jointless
v 276.785 4.4 -465.371
vt -0.0974727 0.0666263
vn 0.383674 -1.68313e-18 -0.923469
v 276.785 -3.142 -465.371
vt -0.0974727 -0.0475773
v 276.785 -16.1 -465.371
vt -0.0974727 -0.243792
v 271.995 -16.1 -468.143
vt -0.0136703 -0.243792
vn 0.609612 -1.68313e-18 -0.7927
v 271.995 -3.142 -468.143
vt -0.0136703 -0.0475773
v 271.995 4.4 -468.143
vt -0.0136703 0.0666263
f 1/1/1 2/2/1 3/3/1 4/4/2 5/5/2 6/6/2 

v 282.129 4.4 -463.933
vt -2.29986 0.0666263
vn 0.131589 7.20476e-21 -0.991304
v 282.129 -3.142 -463.933
vt -2.29986 -0.0475773
v 282.129 -16.1 -463.933
vt -2.29986 -0.243792
vt -2.21605 -0.243792
vt -2.21605 -0.0475773
vt -2.21605 0.0666263
f 7/7/3 8/8/3 9/9/3 3/10/1 2/11/1 1/12/1 

v 287.664 4.4 -463.927
vt -4.34837 0.0666263
vn -0.129463 8.73363e-19 -0.991584
v 287.664 -3.142 -463.927
vt -4.34837 -0.0475773
v 287.664 -16.1 -463.927
vt -4.34837 -0.243792
vt -4.26456 -0.243792
vt -4.26456 -0.0475773
vt -4.26456 0.0666263
f 10/13/4 11/14/4 12/15/4 9/16/3 8/17/3 7/18/3 

v 293.011 4.4 -465.353
vt -6.1034 0.0666263
vn -0.381693 8.66159e-19 -0.924289
v 293.011 -3.142 -465.353
vt -6.1034 -0.0475773
v 293.011 -16.1 -465.353
vt -6.1034 -0.243792
vt -6.01959 -0.243792
vt -6.01959 -0.0475773
vt -6.01959 0.0666263
f 13/19/5 14/20/5 15/21/5 12/22/4 11/23/4 10/24/4 

v 297.807 4.4 -468.115
vt -7.44534 0.0666263
vn -0.607911 0 -0.794006
v 297.807 -3.142 -468.115
vt -7.44534 -0.0475773
v 297.807 -16.1 -468.115
vt -7.44534 -0.243792
vt -7.36154 -0.243792
vt -7.36154 -0.0475773
vt -7.36154 0.0666263
f 16/25/6 17/26/6 18/27/6 15/28/5 14/29/5 13/30/5 

v 301.724 4.4 -472.024
vt -8.28276 0.0666263
vn -0.7927 -1.68313e-18 -0.609612
v 301.724 -3.142 -472.024
vt -8.28276 -0.0475773
v 301.724 -16.1 -472.024
vt -8.28276 -0.243792
vt -8.19896 -0.243792
vt -8.19896 -0.0475773
vt -8.19896 0.0666263
f 19/31/7 20/32/7 21/33/7 18/34/6 17/35/6 16/36/6 

v 304.497 4.4 -476.814
vt -8.55858 0.0666263
vn -0.923469 -3.42937e-18 -0.383674
v 304.497 -3.142 -476.814
vt -8.55858 -0.0475773
v 304.497 -16.1 -476.814
vt -8.55858 -0.243792
vt -8.47477 -0.243792
vt -8.47477 -0.0475773
vt -8.47477 0.0666263
f 22/37/8 23/38/8 24/39/8 21/40/7 20/41/7 19/42/7 

v 305.935 4.4 -482.159
vt -8.254 0.0666263
vn -0.991304 -1.76e-18 -0.131589
v 305.935 -3.142 -482.159
vt -8.254 -0.0475773
v 305.935 -16.1 -482.159
vt -8.254 -0.243792
vt -8.17019 -0.243792
vt -8.17019 -0.0475773
vt -8.17019 0.0666263
f 25/43/9 26/44/9 27/45/9 24/46/8 23/47/8 22/48/8 

v 305.941 4.4 -487.693
vt -7.38977 0.0666263
vn -0.991584 -1.37673e-20 0.129463
v 305.941 -3.142 -487.693
vt -7.38977 -0.0475773
v 305.941 -16.1 -487.693
vt -7.38977 -0.243792
vt -7.30597 -0.243792
vt -7.30597 -0.0475773
vt -7.30597 0.0666263
f 28/49/10 29/50/10 30/51/10 27/52/9 26/53/9 25/54/9 

v 304.514 4.4 -493.04
vt -6.02481 0.0666263
vn -0.924289 0 0.381693
v 304.514 -3.142 -493.04
vt -6.02481 -0.0475773
v 304.514 -16.1 -493.04
vt -6.02481 -0.243792
vt -5.941 -0.243792
vt -5.941 -0.0475773
vt -5.941 0.0666263
f 31/55/11 32/56/11 33/57/11 30/58/10 29/59/10 28/60/10 

v 301.752 4.4 -497.836
vt -4.25211 0.0666263
vn -0.794006 2.37335e-18 0.607911
v 301.752 -3.142 -497.836
vt -4.25211 -0.0475773
v 301.752 -16.1 -497.836
vt -4.25211 -0.243792
vt -4.16831 -0.243792
vt -4.16831 -0.0475773
vt -4.16831 0.0666263
f 34/61/12 35/62/12 36/63/12 33/64/11 32/65/11 31/66/11 

v 297.843 4.4 -501.754
vt -2.1925 0.0666263
vn -0.609612 4.05648e-18 0.7927
v 297.843 -3.142 -501.754
vt -2.1925 -0.0475773
v 297.843 -16.1 -501.754
vt -2.1925 -0.243792
vt -2.1087 -0.243792
vt -2.1087 -0.0475773
vt -2.1087 0.0666263
f 37/67/13 38/68/13 39/69/13 36/70/12 35/71/12 34/72/12 

v 293.053 4.4 -504.526
vt 0.0136703 0.0666263
vn -0.383674 1.68313e-18 0.923469
v 293.053 -3.142 -504.526
vt 0.0136703 -0.0475773
v 293.053 -16.1 -504.526
vt 0.0136703 -0.243792
vt 0.0974727 -0.243792
vt 0.0974727 -0.0475773
vt 0.0974727 0.0666263
f 40/73/14 41/74/14 42/75/14 39/76/13 38/77/13 37/78/13 

v 287.709 4.4 -505.964
vt 2.21605 0.0666263
vn -0.131589 0 0.991304
v 287.709 -3.142 -505.964
vt 2.21605 -0.0475773
v 287.709 -16.1 -505.964
vt 2.21605 -0.243792
vt 2.29986 -0.243792
vt 2.29986 -0.0475773
vt 2.29986 0.0666263
f 43/79/15 44/80/15 45/81/15 42/82/14 41/83/14 40/84/14 

v 282.174 4.4 -505.97
vt 4.26456 0.0666263
vn 0.129463 0 0.991584
v 282.174 -3.142 -505.97
vt 4.26456 -0.0475773
v 282.174 -16.1 -505.97
vt 4.26456 -0.243792
vt 4.34837 -0.243792
vt 4.34837 -0.0475773
vt 4.34837 0.0666263
f 46/85/16 47/86/16 48/87/16 45/88/15 44/89/15 43/90/15 

v 276.827 4.4 -504.543
vt 6.01959 0.0666263
vn 0.381693 -3.35379e-18 0.924289
v 276.827 -3.142 -504.543
vt 6.01959 -0.0475773
v 276.827 -16.1 -504.543
vt 6.01959 -0.243792
vt 6.1034 -0.243792
vt 6.1034 -0.0475773
vt 6.1034 0.0666263
f 49/91/17 50/92/17 51/93/17 48/94/16 47/95/16 46/96/16 

v 272.031 4.4 -501.781
vt 7.36154 0.0666263
vn 0.607911 -3.35379e-18 0.794006
v 272.031 -3.142 -501.781
vt 7.36154 -0.0475773
v 272.031 -16.1 -501.781
vt 7.36154 -0.243792
vt 7.44534 -0.243792
vt 7.44534 -0.0475773
vt 7.44534 0.0666263
f 52/97/18 53/98/18 54/99/18 51/100/17 50/101/17 49/102/17 

v 268.114 4.4 -497.872
vt 8.19896 0.0666263
vn 0.7927 1.68313e-18 0.609612
v 268.114 -3.142 -497.872
vt 8.19896 -0.0475773
v 268.114 -16.1 -497.872
vt 8.19896 -0.243792
vt 8.28276 -0.243792
vt 8.28276 -0.0475773
vt 8.28276 0.0666263
f 55/103/19 56/104/19 57/105/19 54/106/18 53/107/18 52/108/18 

v 265.341 4.4 -493.082
vt 8.47477 0.0666263
vn 0.923469 1.68313e-18 0.383674
v 265.341 -3.142 -493.082
vt 8.47477 -0.0475773
v 265.341 -16.1 -493.082
vt 8.47477 -0.243792
vt 8.55858 -0.243792
vt 8.55858 -0.0475773
vt 8.55858 0.0666263
f 58/109/20 59/110/20 60/111/20 57/112/19 56/113/19 55/114/19 

v 263.903 4.4 -487.738
vt 8.17019 0.0666263
vn 0.991304 6.56255e-21 0.131589
v 263.903 -3.142 -487.738
vt 8.17019 -0.0475773
v 263.903 -16.1 -487.738
vt 8.17019 -0.243792
vt 8.254 -0.243792
vt 8.254 -0.0475773
vt 8.254 0.0666263
f 61/115/21 62/116/21 63/117/21 60/118/20 59/119/20 58/120/20 

v 263.897 4.4 -482.204
vt 7.30597 0.0666263
vn 0.991584 6.56255e-21 -0.129463
v 263.897 -3.142 -482.204
vt 7.30597 -0.0475773
v 263.897 -16.1 -482.204
vt 7.30597 -0.243792
vt 7.38977 -0.243792
vt 7.38977 -0.0475773
vt 7.38977 0.0666263
f 64/121/22 65/122/22 66/123/22 63/124/21 62/125/21 61/126/21 

v 265.324 4.4 -476.856
vt 5.941 0.0666263
vn 0.924289 -3.35379e-18 -0.381693
v 265.324 -3.142 -476.856
vt 5.941 -0.0475773
v 265.324 -16.1 -476.856
vt 5.941 -0.243792
vt 6.02481 -0.243792
vt 6.02481 -0.0475773
vt 6.02481 0.0666263
f 67/127/23 68/128/23 69/129/23 66/130/22 65/131/22 64/132/22 

v 268.086 4.4 -472.061
vt 4.16831 0.0666263
vn 0.794006 -3.35379e-18 -0.607911
v 268.086 -3.142 -472.061
vt 4.16831 -0.0475773
v 268.086 -16.1 -472.061
vt 4.16831 -0.243792
vt 4.25211 -0.243792
vt 4.25211 -0.0475773
vt 4.25211 0.0666263
f 70/133/24 71/134/24 72/135/24 69/136/23 68/137/23 67/138/23 

vt 2.1087 0.0666263
vt 2.1087 -0.0475773
vt 2.1087 -0.243792
vt 2.1925 -0.243792
vt 2.1925 -0.0475773
vt 2.1925 0.0666263
f 6/139/2 5/140/2 4/141/2 72/142/24 71/143/24 70/144/24 

usemtl Asphalt_New
vt -8.65805 15.8203
vn 0 -1 -0
vt -8.65825 16.0019
vt -8.70543 16.1772
vt -8.79638 16.3344
vt -8.92491 16.4626
vt -9.08225 16.5533
vt -9.25769 16.6001
vt -9.43926 16.5999
vt -9.6146 16.5527
vt -9.77174 16.4617
vt -9.9 16.3332
vt -9.99061 16.1759
vt -10.0374 16.0004
vt -10.0372 15.8189
vt -9.99004 15.6435
vt -9.89909 15.4864
vt -9.77056 15.3581
vt -9.61322 15.2675
vt -9.43778 15.2207
vt -9.25621 15.2209
vt -9.08088 15.2681
vt -8.92373 15.359
vt -8.79547 15.4876
vt -8.70486 15.6449
f 64/145/25 61/146/25 58/147/25 55/148/25 52/149/25 49/150/25 46/151/25 43/152/25 40/153/25 37/154/25 34/155/25 31/156/25 28/157/25 25/158/25 22/159/25 19/160/25 16/161/25 13/162/25 10/163/25 7/164/25 1/165/25 6/166/25 70/167/25 67/168/25 

