# Alias OBJ Model File
# Exported from SketchUp, (c) 2000-2012 Trimble Navigation Limited
# File units = centimeters

mtllib vermelho.mtl

g Mesh1 Group2 Group1 Model

usemtl Color_A05
v 372.146 4.458 -515.466
vt -25.5236 8.07087
vn -0.975504 -1.28539e-18 0.21998
v 372.146 -3.08401 -515.466
vt -25.5236 5.10157
v 372.146 -16.042 -515.466
vt -25.5236 -3.98569e-17
v 373.539 -16.042 -508.378
vt -22.6798 -3.98569e-17
vn -0.986197 -2.11054e-18 0.165579
v 373.539 -3.08401 -508.378
vt -22.6798 5.10157
v 373.539 4.458 -508.378
vt -22.6798 8.07087
f 1/1/1 2/2/1 3/3/1 4/4/2 5/5/2 6/6/2 

v 370.363 4.458 -522.466
vt -27.4687 8.07087
vn -0.961814 2.00128e-18 0.273704
v 370.363 -3.08401 -522.466
vt -27.4687 5.10157
v 370.363 -16.042 -522.466
vt -27.4687 0
vt -24.6249 0
vt -24.6249 5.10157
vt -24.6249 8.07087
f 7/7/3 8/8/3 9/9/3 3/10/1 2/11/1 1/12/1 

v 368.194 4.458 -529.356
vt -29.3336 8.07087
vn -0.953857 4.00101e-18 0.300261
v 368.194 -3.08401 -529.356
vt -29.3336 5.10157
v 368.194 -16.042 -529.356
vt -29.3336 7.36058e-17
vt -26.4898 7.36058e-17
vt -26.4898 5.10157
vt -26.4898 8.07087
f 10/13/4 11/14/4 12/15/4 9/16/3 8/17/3 7/18/3 

v 345.994 4.458 -516.556
vt 14.218 8.07087
vn 0.499497 0 0.866315
v 345.994 -3.08401 -516.556
vt 14.218 5.10157
v 345.994 -16.042 -516.556
vt 14.218 0
vt 24.3069 0
vt 24.3069 5.10157
vt 24.3069 8.07087
f 13/19/5 14/20/5 15/21/5 12/22/5 11/23/5 10/24/5 

vt 0 28.4646
vn 0 -1 -0
vt -8.74016 33.5039
vt -9.59404 30.7914
vt -10.2963 28.0356
vt -10.8447 25.2452
v 374.537 4.458 -501.224
vt -11.2377 22.4287
v 375.137 4.458 -494.026
vt -11.4739 19.5947
v 375.338 4.458 -486.806
vt -11.5528 16.752
v 375.137 4.458 -479.585
vt -11.4739 13.9093
v 374.537 4.458 -472.387
vt -11.2377 11.0753
v 373.539 4.458 -465.233
vt -10.8447 8.25875
v 372.146 4.458 -458.145
vt -10.2963 5.46833
v 370.363 4.458 -451.146
vt -9.59404 2.71259
v 368.194 4.458 -444.256
vt -8.74016 0
v 345.994 4.458 -457.056
vt 0 5.03937
f 13/25/6 10/26/6 7/27/6 1/28/6 6/29/6 16/30/6 17/31/6 18/32/6 19/33/6 20/34/6 21/35/6 22/36/6 23/37/6 24/38/6 25/39/6 

vt -23.5045 8.07087
vt -23.5045 5.10157
vt -23.5045 -2.34731e-17
v 374.537 -16.042 -501.224
vt -20.6607 -2.34731e-17
vn -0.993857 -1.24028e-18 0.11067
v 374.537 -3.08401 -501.224
vt -20.6607 5.10157
vt -20.6607 8.07087
f 6/40/2 5/41/2 4/42/2 26/43/7 27/44/7 16/45/7 

vt -21.4175 8.07087
vt -21.4175 5.10157
vt -21.4175 -1.08408e-17
v 375.137 -16.042 -494.026
vt -18.5737 -1.08408e-17
vn -0.998463 -4.1513e-19 0.05542
v 375.137 -3.08401 -494.026
vt -18.5737 5.10157
vt -18.5737 8.07087
f 16/46/7 27/47/7 26/48/7 28/49/8 29/50/8 17/51/8 

vt -19.2691 8.07087
vt -19.2691 5.10157
vt -19.2691 0
v 375.338 -16.042 -486.806
vt -16.4253 0
vn -1 0 6.90685e-16
v 375.338 -3.08401 -486.806
vt -16.4253 5.10157
vt -16.4253 8.07087
f 17/52/8 29/53/8 28/54/8 30/55/9 31/56/9 18/57/9 

vt -17.0658 8.07087
vt -17.0658 5.10157
vt -17.0658 0
v 375.137 -16.042 -479.585
vt -14.222 0
vn -0.998463 -1.38587e-19 -0.05542
v 375.137 -3.08401 -479.585
vt -14.222 5.10157
vt -14.222 8.07087
f 18/58/9 31/59/9 30/60/9 32/61/10 33/62/10 19/63/10 

vt -14.8144 8.07087
vt -14.8144 5.10157
vt -14.8144 -2.84789e-18
v 374.537 -16.042 -472.387
vt -11.9706 -2.84789e-18
vn -0.993857 7.82383e-19 -0.11067
v 374.537 -3.08401 -472.387
vt -11.9706 5.10157
vt -11.9706 8.07087
f 19/64/10 33/65/10 32/66/10 34/67/11 35/68/11 20/69/11 

vt -12.5218 8.07087
vt -12.5218 5.10157
vt -12.5218 1.76749e-17
v 373.539 -16.042 -465.233
vt -9.67802 1.76749e-17
vn -0.986197 9.2097e-19 -0.165579
v 373.539 -3.08401 -465.233
vt -9.67802 5.10157
vt -9.67802 8.07087
f 20/70/11 35/71/11 34/72/11 36/73/12 37/74/12 21/75/12 

vt -10.1952 8.07087
vt -10.1952 5.10157
vt -10.1952 0
v 372.146 -16.042 -458.145
vt -7.35135 0
vn -0.975504 0 -0.21998
v 372.146 -3.08401 -458.145
vt -7.35135 5.10157
vt -7.35135 8.07087
f 21/76/12 37/77/12 36/78/12 38/79/13 39/80/13 22/81/13 

vt -7.84151 8.07087
vt -7.84151 5.10157
vt -7.84151 0
v 370.363 -16.042 -451.146
vt -4.9977 0
vn -0.961814 -2.00128e-18 -0.273704
v 370.363 -3.08401 -451.146
vt -4.9977 5.10157
vt -4.9977 8.07087
f 22/82/13 39/83/13 38/84/13 40/85/14 41/86/14 23/87/14 

vt -5.46814 8.07087
vt -5.46814 5.10157
vt -5.46814 -3.33559e-17
v 368.194 -16.042 -444.256
vt -2.62433 -3.33559e-17
vn -0.953857 -4.00101e-18 -0.300261
v 368.194 -3.08401 -444.256
vt -2.62433 5.10157
vt -2.62433 8.07087
f 23/88/14 41/89/14 40/90/14 42/91/15 43/92/15 24/93/15 

vt -7.57173 8.07087
vn 0.499497 0 -0.866315
vt -7.57173 5.10157
vt -7.57173 0
v 345.994 -16.042 -457.056
vt 2.51715 0
v 345.994 -3.08401 -457.056
vt 2.51715 5.10157
vt 2.51715 8.07087
f 24/94/16 43/95/16 42/96/16 44/97/16 45/98/16 25/99/16 

g Mesh2 Group1 Model

vt 5.03937 8.07087
vn 1 0 -0
vt 5.03937 5.10157
vt 5.03937 0
vt 28.4646 0
vt 28.4646 5.10157
vt 28.4646 8.07087
f 25/100/17 45/101/17 44/102/17 15/103/17 14/104/17 13/105/17 

